HIERARCHY
ROOT Hips
{
	OFFSET	0.00	0.00	0.00
	CHANNELS 6 Xposition Yposition Zposition Zrotation Xrotation Yrotation
	JOINT LeftUpLeg
	{
		OFFSET	 0.126116	-0.014019	-0.065224
		CHANNELS 3 Zrotation Xrotation Yrotation
		JOINT LeftLeg
		{
			OFFSET	 0.000000	 0.000000	 0.569914
			CHANNELS 3 Zrotation Xrotation Yrotation
			JOINT LeftFoot
			{
				OFFSET	 0.000000	 0.000000	 0.544423
				CHANNELS 3 Zrotation Xrotation Yrotation
				JOINT LeftToeBase
				{
					OFFSET	 0.000000	 0.000000	 0.207117
					CHANNELS 3 Zrotation Xrotation Yrotation
					End Site
					{
						OFFSET	 0.000000	 0.000000	 0.207117
					}
				}
			}
		}
	}
	JOINT RightUpLeg
	{
		OFFSET	-0.124023	-0.008373	-0.065224
		CHANNELS 3 Zrotation Xrotation Yrotation
		JOINT RightLeg
		{
			OFFSET	 0.000000	 0.000000	 0.570047
			CHANNELS 3 Zrotation Xrotation Yrotation
			JOINT RightFoot
			{
				OFFSET	 0.000000	 0.000000	 0.544354
				CHANNELS 3 Zrotation Xrotation Yrotation
				JOINT RightToeBase
				{
					OFFSET	 0.000000	 0.000000	 0.207540
					CHANNELS 3 Zrotation Xrotation Yrotation
					End Site
					{
						OFFSET	 0.000000	 0.000000	 0.207540
					}
				}
			}
		}
	}
	JOINT Spine
	{
		OFFSET	 0.000184	-0.007763	 0.117403
		CHANNELS 3 Zrotation Xrotation Yrotation
		JOINT Spine1
		{
			OFFSET	 0.000000	 0.000000	 0.137269
			CHANNELS 3 Zrotation Xrotation Yrotation
			JOINT Spine2
			{
				OFFSET	 0.000000	 0.000000	 0.156879
				CHANNELS 3 Zrotation Xrotation Yrotation
				JOINT LeftShoulder
				{
					OFFSET	 0.080501	-0.002496	 0.160144
					CHANNELS 3 Zrotation Xrotation Yrotation
					JOINT LeftArm
					{
						OFFSET	 0.000000	 0.000000	 0.164363
						CHANNELS 3 Zrotation Xrotation Yrotation
						JOINT LeftForeArm
						{
							OFFSET	 0.000000	 0.000000	 0.364576
							CHANNELS 3 Zrotation Xrotation Yrotation
							JOINT LeftHand
							{
								OFFSET	 0.000000	 0.000000	 0.360812
								CHANNELS 3 Zrotation Xrotation Yrotation
								JOINT LeftHandIndex1
								{
									OFFSET	 0.000000	 0.000000	 0.086006
									CHANNELS 3 Zrotation Xrotation Yrotation
									JOINT LeftHandIndex2
									{
										OFFSET	 0.000000	 0.000000	 0.047236
										CHANNELS 3 Zrotation Xrotation Yrotation
										JOINT LeftHandIndex3
										{
											OFFSET	-0.004284	-0.000551	 0.038166
											CHANNELS 3 Zrotation Xrotation Yrotation
											End Site
											{
												OFFSET	-0.004284	-0.000551	 0.038166
											}
										}
									}
								}
							}
						}
					}
				}
				JOINT Neck
				{
					OFFSET	 0.000000	 0.000000	 0.176489
					CHANNELS 3 Zrotation Xrotation Yrotation
					JOINT Head
					{
						OFFSET	 0.000000	-0.001747	 0.077940
						CHANNELS 3 Zrotation Xrotation Yrotation
						End Site
						{
							OFFSET	 0.000000	-0.001747	 0.077940
						}
					}
				}
				JOINT RightShoulder
				{
					OFFSET	-0.080363	 0.000306	 0.159706
					CHANNELS 3 Zrotation Xrotation Yrotation
					JOINT RightArm
					{
						OFFSET	 0.000000	 0.000000	 0.164196
						CHANNELS 3 Zrotation Xrotation Yrotation
						JOINT RightForeArm
						{
							OFFSET	 0.000000	 0.000000	 0.365611
							CHANNELS 3 Zrotation Xrotation Yrotation
							JOINT RightHand
							{
								OFFSET	 0.000000	 0.000000	 0.360648
								CHANNELS 3 Zrotation Xrotation Yrotation
								JOINT RightHandIndex1
								{
									OFFSET	 0.000000	 0.000000	 0.069977
									CHANNELS 3 Zrotation Xrotation Yrotation
									JOINT RightHandIndex2
									{
										OFFSET	 0.000000	 0.000000	 0.052305
										CHANNELS 3 Zrotation Xrotation Yrotation
										JOINT RightHandIndex3
										{
											OFFSET	 0.009002	-0.000782	 0.042196
											CHANNELS 3 Zrotation Xrotation Yrotation
											End Site
											{
												OFFSET	 0.009002	-0.000782	 0.042196
											}
										}
									}
								}
							}
						}
					}
				}
			}
		}
	}
}
MOTION
Frames:    4
Frame Time: 0.03333334
 0.011894	 0.036477	 1.215634	-179.990700	 0.624633	 0.444172	-18.033340	-11.434580	-174.957500	-1.811270	-40.653630	-7.123632	 178.117100	 84.391430	 167.817300	-2.200030	 46.819090	-0.476302	 7.983119	-9.993632	 177.009400	 6.600457	-39.802220	 9.527081	-152.727700	 83.560420	 162.544900	 2.361165	 32.671890	 0.095627	-3.271519	 5.015399	 1.315487	-1.354217	 10.797020	-2.306629	 6.900273	-24.899950	 4.911614	-91.229290	 83.958310	 178.242600	 72.390270	 74.632000	-47.142230	 4.129986	-16.484130	-38.481080	 24.178430	-9.638249	-8.004341	-11.582750	 8.176539	-24.437220	-5.213937	-0.202400	 3.566957	-1.378229	 35.397820	-2.634230	-1.385330	 7.022148	 5.383619	-2.658792	-20.123860	-7.236166	 87.726830	 87.418890	-176.798800	-91.087440	 62.991770	 77.330170	-6.075072	-14.845410	 29.160210	-38.106820	-7.892701	 18.367060	-0.551876	 25.759600	-61.802160	 5.070519	-0.690904	-9.399550	-2.350882	 35.473990	 5.254307
 0.011994	 0.038608	 1.217629	-179.516800	 0.624721	 0.557902	-18.663090	-10.363550	-175.658000	-1.813280	-41.100040	-7.188729	-176.831300	 83.154150	 162.759500	-2.137981	 49.954450	-0.583893	 7.790585	-8.658026	 178.000600	 6.677315	-39.911250	 9.599676	-166.615400	 82.880430	 176.007600	 2.369532	 31.331640	 0.065018	-3.212570	 4.963275	 1.193103	-1.454810	 12.493030	-2.516437	 7.036500	-26.231250	 5.189709	-91.229250	 83.958340	 178.242600	 44.865410	 66.211510	-39.971870	 9.494626	-0.214735	-0.460301	 23.843720	-10.016630	-8.129683	-11.944550	 7.331946	-25.006570	-5.213937	-0.202400	 3.566957	-1.378229	 35.397820	-2.634230	-1.404014	 6.751863	 5.212794	-2.747813	-20.807080	-7.028016	 87.727130	 87.419040	-176.799100	-68.211200	 60.147990	 68.696310	-9.026937	-0.229929	 0.439487	-37.081390	-7.951923	 18.532100	-0.100664	 26.499090	-62.138280	 5.070519	-0.690904	-9.399550	-2.350882	 35.473990	 5.254307
 0.012034	 0.037986	 1.218267	-179.358900	 0.616317	 0.598396	-18.755230	-10.561210	-175.584600	-1.712851	-40.959740	-7.101556	-177.652300	 83.569010	 163.523900	-2.120760	 50.721760	-0.612121	 7.563899	-8.862342	 177.765900	 6.688466	-39.833600	 9.591835	-164.683500	 83.184620	 174.085100	 2.370514	 31.162610	 0.061208	-3.211174	 4.959561	 1.182328	-1.422492	 12.240570	-2.653961	 7.038291	-26.291360	 5.243714	-91.229260	 83.958270	 178.242600	 50.855360	 68.560600	-39.307920	 8.798318	-5.944481	-12.910850	 23.852840	-10.120890	-8.172889	-12.114800	 7.053205	-25.356150	-5.213937	-0.202400	 3.566957	-1.378229	 35.397820	-2.634230	-1.397047	 6.672689	 5.113836	-2.752789	-20.984130	-6.917498	 87.726820	 87.418960	-176.798800	-70.880910	 60.627240	 71.149120	-8.885998	-0.231470	 0.445177	-36.878220	-8.000568	 18.579280	-0.042063	 26.605870	-62.245430	 5.070519	-0.690904	-9.399550	-2.350882	 35.473990	 5.254307
 0.011914	 0.037122	 1.218898	-179.205100	 0.631735	 0.557405	-18.835250	-10.850240	-175.401200	-1.600277	-40.733920	-6.994631	-178.915600	 84.104750	 164.729300	-2.108517	 51.244630	-0.631832	 7.375712	-9.171702	 177.559800	 6.673706	-39.792550	 9.573931	-162.078300	 83.503400	 171.529400	 2.371631	 30.970320	 0.056871	-3.184417	 4.935597	 1.230567	-1.390763	 11.920820	-2.761567	 7.016060	-26.327890	 5.288332	-91.229240	 83.958340	 178.242600	 58.733620	 70.948140	-40.856520	 6.911217	-11.146530	-25.099590	 23.826460	-10.217820	-8.211595	-12.229620	 6.862710	-25.586920	-5.213937	-0.202400	 3.566957	-1.378229	 35.397820	-2.634230	-1.407598	 6.620557	 5.063294	-2.788828	-21.164160	-6.894976	 87.726780	 87.418960	-176.798700	-74.436480	 61.141000	 74.557250	-8.783457	-0.236296	 0.456418	-36.735550	-8.067913	 18.620170	-0.046917	 26.611020	-62.311260	 5.070519	-0.690904	-9.399550	-2.350882	 35.473990	 5.254307
